<svg width="20" height="21" viewBox="0 0 20 21" fill="none" xmlns="http://www.w3.org/2000/svg">
<g clip-path="url(#clip0_96_305)">
<path d="M14.9999 6.78694H14.1666V5.11597C14.1666 2.81005 12.2999 0.938568 9.99992 0.938568C7.69992 0.938568 5.83325 2.81005 5.83325 5.11597V6.78694H4.99992C4.07909 6.78694 3.33325 7.53469 3.33325 8.4579V16.8127C3.33325 17.7359 4.07909 18.4837 4.99992 18.4837H14.9999C15.9208 18.4837 16.6666 17.7359 16.6666 16.8127V8.4579C16.6666 7.53469 15.9208 6.78694 14.9999 6.78694ZM9.99992 2.52598C11.4249 2.52598 12.5833 3.6873 12.5833 5.11597V6.78694H7.49992V5.11597H7.41658C7.41658 3.6873 8.57492 2.52598 9.99992 2.52598ZM14.9999 16.8127H4.99992V8.4579H14.9999V16.8127ZM9.99992 14.3063C10.9208 14.3063 11.6666 13.5585 11.6666 12.6353C11.6666 11.7121 10.9208 10.9643 9.99992 10.9643C9.07909 10.9643 8.33325 11.7121 8.33325 12.6353C8.33325 13.5585 9.07909 14.3063 9.99992 14.3063Z" fill="white"/>
</g>
<defs>
<clipPath id="clip0_96_305">
<rect width="20" height="20.0515" fill="white" transform="translate(0 0.103088)"/>
</clipPath>
</defs>
</svg>
