<svg width="20" height="21" viewBox="0 0 20 21" fill="none" xmlns="http://www.w3.org/2000/svg">
<path d="M7.50002 15.874C7.39058 15.8742 7.28219 15.8527 7.18109 15.8107C7.07999 15.7686 6.98818 15.707 6.91096 15.6292L1.91096 10.6163C1.75948 10.4587 1.67575 10.2478 1.67777 10.029C1.67979 9.81011 1.76741 9.60079 1.92177 9.44603C2.07614 9.29127 2.28492 9.20342 2.50322 9.2014C2.72152 9.19937 2.93189 9.28332 3.08909 9.43519L7.50002 13.8571L16.9106 4.4223C16.9879 4.34469 17.0798 4.28312 17.1809 4.2411C17.282 4.19908 17.3903 4.17744 17.4997 4.1774C17.6092 4.17736 17.7176 4.19894 17.8187 4.24089C17.9198 4.28284 18.0117 4.34435 18.0891 4.42191C18.1665 4.49947 18.2279 4.59155 18.2698 4.6929C18.3117 4.79425 18.3333 4.90289 18.3334 5.01261C18.3334 5.12232 18.3119 5.23097 18.27 5.33235C18.2282 5.43373 18.1668 5.52586 18.0895 5.60346L8.08948 15.6292C8.01221 15.707 7.92034 15.7687 7.81917 15.8107C7.718 15.8527 7.60953 15.8742 7.50002 15.874Z" fill="white"/>
</svg>
