<svg width="25" height="25" viewBox="0 0 25 25" fill="none" xmlns="http://www.w3.org/2000/svg">
<path d="M17.1875 8.33335H4.59811L8.02824 4.90327C8.12497 4.80654 8.2017 4.6917 8.25405 4.56532C8.3064 4.43893 8.33335 4.30347 8.33335 4.16667C8.33335 4.02988 8.3064 3.89442 8.25405 3.76803C8.2017 3.64165 8.12497 3.52681 8.02824 3.43008C7.93151 3.33335 7.81667 3.25662 7.69029 3.20426C7.5639 3.15191 7.42844 3.12497 7.29164 3.12497C7.15484 3.12497 7.01938 3.15191 6.893 3.20426C6.76661 3.25662 6.65178 3.33335 6.55505 3.43008L1.3467 8.63843C1.15136 8.8338 1.04163 9.09875 1.04163 9.37502C1.04163 9.65129 1.15136 9.91625 1.3467 10.1116L6.55505 15.3199C6.7504 15.5153 7.01537 15.625 7.29164 15.625C7.56792 15.625 7.83288 15.5153 8.02824 15.3199C8.2236 15.1246 8.33335 14.8596 8.33335 14.5833C8.33335 14.307 8.2236 14.0421 8.02824 13.8467L4.59811 10.4166H17.1875C18.4307 10.4166 19.623 10.9105 20.502 11.7896C21.3811 12.6687 21.875 13.8609 21.875 15.1041C21.875 16.3474 21.3811 17.5396 20.502 18.4187C19.623 19.2978 18.4307 19.7917 17.1875 19.7917H6.24997C5.9737 19.7917 5.70875 19.9014 5.51339 20.0968C5.31804 20.2921 5.20829 20.5571 5.20829 20.8333C5.20829 21.1096 5.31804 21.3745 5.51339 21.5699C5.70875 21.7653 5.9737 21.875 6.24997 21.875H17.1875C20.9209 21.875 23.9583 18.8376 23.9583 15.1041C23.9583 11.3707 20.9209 8.33335 17.1875 8.33335Z" fill="white"/>
</svg>
